<svg width="80" height="80" viewBox="0 0 80 80" fill="none" xmlns="http://www.w3.org/2000/svg">
<path d="M39.9993 6.66602C21.5993 6.66602 6.66602 21.5993 6.66602 39.9993C6.66602 58.3993 21.5993 73.3327 39.9993 73.3327C58.3993 73.3327 73.3327 58.3993 73.3327 39.9993C73.3327 21.5993 58.3993 6.66602 39.9993 6.66602ZM39.9993 19.9993C46.4327 19.9993 51.666 25.2327 51.666 31.666C51.666 38.0993 46.4327 43.3327 39.9993 43.3327C33.566 43.3327 28.3327 38.0993 28.3327 31.666C28.3327 25.2327 33.566 19.9993 39.9993 19.9993ZM39.9993 66.666C33.2327 66.666 25.2327 63.9327 19.5327 57.066C25.3714 52.4851 32.5781 49.9954 39.9993 49.9954C47.4206 49.9954 54.6273 52.4851 60.466 57.066C54.766 63.9327 46.766 66.666 39.9993 66.666Z" fill="black"/>
</svg>
